<mxfile host="app.diagrams.net" agent="Mozilla/5.0 (Windows NT 10.0; Win64; x64) AppleWebKit/537.36 (KHTML, like Gecko) Chrome/132.0.0.0 Safari/537.36" version="26.0.13">
  <diagram name="第 1 页" id="--pgJ_2Tw0mDKEoxDaO9">
    <mxGraphModel dx="819" dy="422" grid="1" gridSize="10" guides="1" tooltips="1" connect="1" arrows="1" fold="1" page="1" pageScale="1" pageWidth="827" pageHeight="1169" math="0" shadow="0">
      <root>
        <mxCell id="0" />
        <mxCell id="1" parent="0" />
        <mxCell id="Z5FC2RaIZn3amWJaB2KY-51" value="" style="rounded=1;whiteSpace=wrap;html=1;fillColor=#f5f5f5;fontColor=#333333;strokeColor=#666666;sketch=1;curveFitting=1;jiggle=2;opacity=40;" vertex="1" parent="1">
          <mxGeometry x="121.45999999999998" y="260" width="330" height="70" as="geometry" />
        </mxCell>
        <mxCell id="Z5FC2RaIZn3amWJaB2KY-47" value="" style="rounded=1;whiteSpace=wrap;html=1;fillColor=#f5f5f5;fontColor=#333333;strokeColor=#666666;sketch=1;curveFitting=1;jiggle=2;opacity=40;" vertex="1" parent="1">
          <mxGeometry x="120" y="337" width="330" height="70" as="geometry" />
        </mxCell>
        <mxCell id="Z5FC2RaIZn3amWJaB2KY-45" value="" style="rounded=1;whiteSpace=wrap;html=1;fillColor=#f5f5f5;fontColor=#333333;strokeColor=#666666;sketch=1;curveFitting=1;jiggle=2;opacity=40;" vertex="1" parent="1">
          <mxGeometry x="120" y="182" width="330" height="70" as="geometry" />
        </mxCell>
        <mxCell id="Z5FC2RaIZn3amWJaB2KY-24" value="" style="endArrow=none;html=1;rounded=0;sketch=1;curveFitting=1;jiggle=2;dashed=1;dashPattern=1 2;fillColor=#dae8fc;strokeColor=#6c8ebf;strokeWidth=2;" edge="1" parent="1">
          <mxGeometry width="50" height="50" relative="1" as="geometry">
            <mxPoint x="243" y="224" as="sourcePoint" />
            <mxPoint x="414" y="224" as="targetPoint" />
          </mxGeometry>
        </mxCell>
        <mxCell id="Z5FC2RaIZn3amWJaB2KY-2" value="" style="group;textShadow=1;" vertex="1" connectable="0" parent="1">
          <mxGeometry x="127" y="189.5" width="46" height="54.389999999999986" as="geometry" />
        </mxCell>
        <UserObject label="" tags="Background" id="Z5FC2RaIZn3amWJaB2KY-3">
          <mxCell style="vsdxID=1;fillColor=none;gradientColor=none;image;aspect=fixed;image=data:image/png,iVBORw0KGgoAAAANSUhEUgAAAJYAAACWCAYAAAA8AXHiAAAAAXNSR0IArs4c6QAADwhJREFUeF7tnU2MHEcVx6t7PLOzY2+ctTdxduOYdT5twCGy+bhgESTEyTEEIXEBER/ioEggwcH5OngsPhJ8AIkDIs4hQXAAIRGU5ISQcGQukCwyMcGOIfKy3sziZDeOs/bszk66G72e7Ultbc/0R71XXd1TfbG13VVd/eo37/3rVVW3xcxhLEBgAYugTlOlsQAzYBkISCxgwCIxq6nUgGUYILGAAYvErKZSA5ZhgMQCBiwSs5pKDViGARILGLBIzGoqNWAZBkgsYMAiMaup1IBlGCCxgAGLxKymUgOWYYDEAgYsErOaSg1YPAN1rzLWfGOoyWojwZ9d26mEYWK7pRX4e6lkt4acq/7/54/vWjRIdSwwmGBxAJVK9ibX9YY8yw0FKCkolmev2LbVanvtlU1ua2FQYRsYsMaOnBsBTwQgOZ7T9UhJwUlzPcDmWB8slq3y4uKT2xfS1JG3MsUGq+5Vas2LY8z2xnXpmACyonuz4oGlIUy9oC4yZMUBq+5VqsvTEzazt+rinZK0w2XuQpG8WO7Bqh2ZmbAsayuW+E4CA8W1q+K/kXctll+w6l5l49LsXUUBSoQUABv2rk3ndVSZP7ByHvKSejkIkcvVyQarW36uLC9HrsCCsKfTCE9VJ4P38jxvoXl8R0PVPWXvkw+w6l5lpPXWpOr8k6xxscsDYNeGt7+RB++lPVgjj81udTxnEruT8lpfXryXvmAZL9Wffdea0zk06glWxiO+5Xfn9jG3PeH3rOP4WXvP7fxr2aW5bo+XSnPMLvu6pzw0PFfaeL1SDaRzaNQOLH9Ozx6+U1WoWp6fuc8Hp72y13OcfYx5HaBSHJZdmvLhK22YYuXqlArYdE1LaAWWKqjAI3mtawc85wMfKsrDKm14sXLd2DOU3kxH3aUNWCpEOngnb6V1wHPBM0UfkzcMs8mxYf/CybGq/+/0/HK34PT8Uudv73T+7XeAN7Oqm05QeTHd4NICLGqowEO5zfeP9gtzD+yfYJ/bvYXdu3u0C1MULPz5k2ffZSfPXmYvn7vMALhesAFglc03HCPzYJqI+szBooZqqfHvp3t5qGcPfzw1SFHQAWi/PNVgJwG0EI9ml4dOlDeNvkQCmAZwZQoWpabq5aUCzwT/qjqeO9XoQHb23TW3pPJeOoTFzMAihWp+5j53uXmU70XQS88++DF27+4tqnhadx8A7Njzb67zYEOjNx3E9lxZjxazAQsW4y3P7KHo4Y6nuvI0XzfA9OfHP0lxu8R1gv46dOJ1wXtZjaHRbd+igCurKaBMwNr4yMU9FMtdwqACoLL0Ur3Iq//+Td97fXgQwvXjW84k/gVIFlAO1shjs3dSTCbnCaqgz1TB5S+9eWrntCQriYorBYtyBNicPfcq/+S6eiqxd0S4YLRY3bbzRKJejHOx4pGiOrAoddWlC4fddutwYN+8QBW09/M/enWN5iqCmFcGFlUIdK69N9G6/L8Xgk7SSajHcSRwDQh6gCvId1F5LX/SWpHeUgIW5crPZcFbXfjp/lSZ8ygIIFUARzC1w0/3RJWNc14MiRRey2+HopBIDxZhCBS91dH7b2P1r9wWpx8jrzl04p89s+a8d/zm/gm07P3O753qei2YvB4ev/1YZEMTXqBqqQ05WFQhEOzJeyvwIBd+sj+hmddfDtnxQ8+8HmtimS8N00Oy2Xzea0FWfnjijoekHyikAhWjRFKwKLPrYK/m7BsvBBPLGN5KFNHr+8Rq9JvIlm0DQA1tCA6ycMgYq7lL5ym3lpGCRemtxDAoOxIMgwrCkVWu/L08fN0UnxX3V5jC4sDlq4fFCW7ZdvDh0K7WjlXHdrxI4bWohTwZWJQ5K+wwKHoKxqyGXbvuWHXLuL8itN8Ba7zc5aUHA08GIRngCtZxRZUXz4O2CwYKlOEQ7kvptSjBIsmwBx3BL4eRCUEw1N/53VNc/1qN2va7DiYBQhyZyugtgArg6hzJ25Kk3ZReiwQsam2Fqa/WZb5rmx+K46nEDuT1nkwuTfSete27SGfPqbwWCViU2iroUH4KR0bX8NpKZogvzlWmzaepFPBgy5JVgpfBnU/i6eJciw6WCm+FJdzFMGin9FZgaKo2UY4MA0AovBY6WNVHL0xSv6NK7ETwDmkOWKP+oZ5hTDbs8OFQRmdZ3/hj93FkYI9rE4q8FjpYVGuteCOFLZGJa8Te18kLZRKwCFMOgS0oRDwqWNQphsAQnSH+2qXHOoCFNVJV7bEoUg+oYKkIg2AECrAwckb8gCJtKBR1nwqNRSHiUcGqPfrfWBtB5b1LRyxj1MPXIbPmHEu8q043UIVDNLBUhUFsmLDqE8HyfvXFVFWrTJCKDcQcHaKBpSoMpuotBYWW5v5zNHgXhMxKi7UJW/kBRaJHR1yrhQaWitFgIiMpvBhzXdga4U61/r2HbTBHh2hgqdRXCpmJdSt+NCjjrbIS7vxDNp/6SOTEexyjoIA1yPpKnICWmRDnVzZQT0D3ggNLZ6GANaj6SkzUYnorqg0Vkd4GSWcZsCItHX4B9gZZcaGh7PRSysdCm5RGAWvQhDs2VGtTDIxl5q1gBRjSFjEUsAZJuIdBlTbLDl4FY6FhWu/UqxyGgJcHi3B7F7bBZOvDhgraI4ZAFasZouyAIeClwRqUEWHY/KSMp4LOVfbehiiShPMGrIQGS3t5GFQyq1ahHaKuyiq9EGoThJGhtMei3D6fFgTMcthCHdomsysI89l61mXAojWzGqgY00FXrbGkDmAVNTk6sFDBe0MQXtQmHQqLCNYgQwWey4BFFAn5tetwC1mhvl5TaRj+OFtibAkzHkuAU5xUJoFKwQYJmd+c8Vgy1gspi/12wPUpBb09VWASAxYyWOLnUdLuZg5LfsLftBv99bCfFmAVJY8lCnaZdVXrX7OdH6h81nRINxQFLKxVoGEZ9bivREJ2wOmrM2Cltx1fEmvNet5Gf72sV7JK04tPbl+Qsa70qFDFS0BkHjBOWXEkmHbrFv82vjxpKtFGWoDFCrBsBmPrlqirZF6JFOfHQHlNs7rjDKtbKzL3kPZYRQCL3xqfRrTruFhPBgo9FvoxxvK8NBlja7zorbJary4DE19WG7BUvMEPy2hiPWKaIY2+4jeZYrxchOpZ49SLkcOC+8iHQnj77pGZCWZ743Earts14iK+pGCteyug4t3L2PbUCqw8jwxlv25RtDCIMSJE81h5FvA8WGnedpzpSzyw3RV87QNhRIgHFmMsrzqLTzWkAYvfZZPlfkAMxjCWywTtQNFYUFledRYPFnxkCXbeJDnWfKLE6Kuu6dDAyqvOEucI7901moSr7udJ/Ey75uusoh4MS1+hhsK86ixxqUyU8fudz8uymF7PgJG/Qg+FUGEedZYBq4MCVpqBBKw8hkMYFXqug5KDo/giqowHTVIWMwzihkKorQAT0kk6o0jXYoZBfLAYY0XcDlYkgMKeBTsMkoBlvFb+MMR4CYj41GjpBr7iPIr4/OGA02IKb0XjsRhjeRTxYd0ES2raS+/vY86quC+V5phdbqT5UCYOBvi1UHgrMrDymnoIuq0zf7hyoPcX662GXa68VN40+pLMZ1LwMUlWI+YUjpJQuArWVsdzJpM9arZXg4daufLOUfHL9L1b1QGsum3niWxbnu7u2CkGvhUkGsu/Qd2rjLTemnQ8ZyTdY6st1e8biBtK9tuba+X3FhZbd4a1Ko+Tz5TeijQUQuV50Vri8mRoO8D0yIFbGz/46q338DCdnWteevx3b87+4ZW5NV86yxtcVNoqsBWdx1q9Qx5GiOK0zpc/NT71/Hf29P1E3m//9vb5r//8tes/cNwbO49qNfKyMZVqJKgmFAZ30TwbLy5NvnvH5tP/+OFn1nipXkEZvNdHj/xlW/dXapemhifueEhtEE9+N6zFfP3uTO6x4OY6r9XivRWEv/ZzX1j1QPE67P6fnZniw6L2KxwQts/HsYwSsHQW8vyewie+dPtpUVNFGVH0WjprLayvTkTZhFy8r2mAhiFRHAn+6/hnL+0er3VDWxwD+oOUh18+H4wYdd4BTS3Y1Wos7m66fWxAdutX8Gh8ONR1X6FKqNR6rNVe0Gn1Aw9WGn0VgPWJJ/56+rWZK77g1xEs6pxVmGdXo7H4O9e9ysal2bs8y63EDTVU1w1CKFSpqzILhd0ba6K3xMTob759z/mvffrG0Ox6P7jLD/zp7SCfpduGCtUhsJt6ofIGkfVqAhd2umFo9KaDukxMZwVVJhqLB04HMS8K+DhZ9+AZdE6QZglV5mDpkDwVVzSAiD+wd9vFqCkdgGr/91+5wk9M65IcpVy1EBmJVi9QL95DWpZ1Zr7XJPSvH777PVFzaT8JrSizHgWYFmDp4LnCvkkI7QqWzNw8Wm0GKQXRqLqkGHTwVNmL9xDks9ZcHc916Re9V46ub7QuUzhZa6p1P7Yol6b8fMajRX+d+9XLB9x263C/ZwcvVdl8wzEdRoC6QaWFeA/tPA2SqD5graVx5rYnvPbK3tWs+hz8q8tSZEh+DnvXpueP71pU7gAibqiNxlrXTvBczYtjeX0FJXVHZzFNk+SZ9AVr9SmyHjEmMaayazUZ+fWVCsqMIXMjDUKjTPOxyuoc+vQX7716YdBDYw68FN912ofCQddevpYaunla9hMkWF4zbj35Ayt4soKHxzyFvTDY8gsWPE1nUyxsiIVd17nYGBv1iwegPM9baB7f0Yi6Vufz+QaLsyxk7fMMGABl21ZD9juBusBWGLC6Bq17lery9ITNbABN66PrnWq3zOdNQ0UZtnhgcRoMwmTba4/oBFkAU6lkt4rinYqnsaJ+NiGQla1yRbUeC2CC5uRdO8U1eXE9Vj8LrIp+8GYAmut6Q1ibO1a1Ustx3Ks11lzUcR4vLhwy1w0mWGEWq3v+rqHVUSZzHHfItZ3uTiIAEM63vbb/SVvbLXU/bQsAwd8GFaLBDYUyPz1TNpUFjMdKZTZTKMoCBqwoC5nzqSxgwEplNlMoygIGrCgLmfOpLGDASmU2UyjKAgasKAuZ86ksYMBKZTZTKMoCBqwoC5nzqSxgwEplNlMoygIGrCgLmfOpLGDASmU2UyjKAgasKAuZ86ksYMBKZTZTKMoCBqwoC5nzqSxgwEplNlMoygL/B3qnvh7bCXJDAAAAAElFTkSuQmCC;strokeWidth=2;points=[];labelBackgroundColor=none;rounded=0;html=1;whiteSpace=wrap;shadow=0;" vertex="1" parent="Z5FC2RaIZn3amWJaB2KY-2">
            <mxGeometry x="4.579999999999984" width="36.85" height="36.85" as="geometry" />
          </mxCell>
        </UserObject>
        <mxCell id="Z5FC2RaIZn3amWJaB2KY-4" value="Query" style="text;html=1;align=center;verticalAlign=middle;whiteSpace=wrap;rounded=0;fontSize=10;fontFamily=Comic Sans MS;" vertex="1" parent="Z5FC2RaIZn3amWJaB2KY-2">
          <mxGeometry y="34.389999999999986" width="46" height="20" as="geometry" />
        </mxCell>
        <mxCell id="Z5FC2RaIZn3amWJaB2KY-5" value="&lt;div style=&quot;font-size: 14px; line-height: 19px; white-space: pre;&quot;&gt;Mary Youngblood plays a type of flute &lt;/div&gt;&lt;div style=&quot;font-size: 14px; line-height: 19px; white-space: pre;&quot;&gt;that is held in front of the player, &lt;/div&gt;&lt;div style=&quot;font-size: 14px; line-height: 19px; white-space: pre;&quot;&gt;and has what type of finger holes?&lt;/div&gt;" style="text;html=1;align=left;verticalAlign=middle;rounded=0;whiteSpace=wrap;fontFamily=Comic Sans MS;movable=0;resizable=0;rotatable=0;deletable=0;editable=0;locked=1;connectable=0;" vertex="1" parent="1">
          <mxGeometry x="193.54" y="183.69" width="270" height="60" as="geometry" />
        </mxCell>
        <mxCell id="Z5FC2RaIZn3amWJaB2KY-9" value="&lt;div style=&quot;line-height: 19px;&quot;&gt;&lt;span style=&quot;font-size: 14px; white-space: pre;&quot;&gt;Mary Youngblood is a Native American &lt;/span&gt;&lt;/div&gt;&lt;div style=&quot;line-height: 19px;&quot;&gt;&lt;span style=&quot;font-size: 14px; white-space: pre;&quot;&gt;musician &lt;/span&gt;&lt;span style=&quot;background-color: transparent; color: light-dark(rgb(0, 0, 0), rgb(255, 255, 255)); font-size: 14px; white-space: pre;&quot;&gt;descendant &lt;/span&gt;&lt;span style=&quot;background-color: transparent; color: light-dark(rgb(0, 0, 0), rgb(255, 255, 255)); font-size: 14px; white-space: pre;&quot;&gt;who plays &lt;/span&gt;&lt;/div&gt;&lt;div style=&quot;line-height: 19px;&quot;&gt;&lt;span style=&quot;color: light-dark(rgb(0, 0, 0), rgb(255, 255, 255)); font-size: 14px; white-space: pre;&quot;&gt;the Native American flute&lt;/span&gt;&lt;span style=&quot;background-color: transparent; color: light-dark(rgb(0, 0, 0), rgb(255, 255, 255)); font-size: 14px; white-space: pre;&quot;&gt;. ......&lt;/span&gt;&lt;/div&gt;" style="text;html=1;align=left;verticalAlign=middle;rounded=0;whiteSpace=wrap;fontFamily=Comic Sans MS;" vertex="1" parent="1">
          <mxGeometry x="200" y="260" width="260" height="60" as="geometry" />
        </mxCell>
        <mxCell id="Z5FC2RaIZn3amWJaB2KY-10" value="" style="group" vertex="1" connectable="0" parent="1">
          <mxGeometry x="123.46000000000001" y="268.99999999999994" width="55.08000000000001" height="44.66500000000008" as="geometry" />
        </mxCell>
        <mxCell id="Z5FC2RaIZn3amWJaB2KY-7" value="" style="outlineConnect=0;fillColor=#82B366;strokeColor=#82b366;dashed=0;verticalLabelPosition=bottom;verticalAlign=top;align=center;html=1;fontSize=12;fontStyle=0;aspect=fixed;pointerEvents=1;shape=mxgraph.aws4.document;container=0;shadow=1;" vertex="1" parent="Z5FC2RaIZn3amWJaB2KY-10">
          <mxGeometry x="17.40000000000009" width="18.27" height="25" as="geometry" />
        </mxCell>
        <mxCell id="Z5FC2RaIZn3amWJaB2KY-8" value="&lt;font face=&quot;Comic Sans MS&quot;&gt;First-hop&lt;/font&gt;&lt;div&gt;&lt;font face=&quot;Comic Sans MS&quot;&gt;Documents&lt;/font&gt;&lt;/div&gt;" style="text;html=1;align=center;verticalAlign=middle;whiteSpace=wrap;rounded=0;fontSize=10;container=0;" vertex="1" parent="Z5FC2RaIZn3amWJaB2KY-10">
          <mxGeometry y="29.71500000000009" width="55.08" height="14.95" as="geometry" />
        </mxCell>
        <mxCell id="Z5FC2RaIZn3amWJaB2KY-11" value="Next-hop&lt;div&gt;Documents&lt;/div&gt;" style="text;html=1;align=center;verticalAlign=middle;whiteSpace=wrap;rounded=0;fontSize=10;container=0;fontFamily=Comic Sans MS;" vertex="1" parent="1">
          <mxGeometry x="124.45999999999998" y="373" width="57.49" height="19.39" as="geometry" />
        </mxCell>
        <mxCell id="Z5FC2RaIZn3amWJaB2KY-12" value="" style="outlineConnect=0;fillColor=#6C8EBF;strokeColor=#6c8ebf;dashed=0;verticalLabelPosition=bottom;verticalAlign=top;align=center;html=1;fontSize=12;fontStyle=0;aspect=fixed;pointerEvents=1;shape=mxgraph.aws4.document;container=0;shadow=1;" vertex="1" parent="1">
          <mxGeometry x="142.46099999999996" y="346.99999999999994" width="18.27" height="25" as="geometry" />
        </mxCell>
        <mxCell id="Z5FC2RaIZn3amWJaB2KY-13" value="&lt;div style=&quot;line-height: 19px;&quot;&gt;&lt;span style=&quot;font-size: 14px; white-space: pre;&quot;&gt;The Native American flute is a flute &lt;/span&gt;&lt;/div&gt;&lt;div style=&quot;line-height: 19px;&quot;&gt;&lt;span style=&quot;font-size: 14px; white-space: pre;&quot;&gt;that is held in front of the player,&lt;/span&gt;&lt;/div&gt;&lt;div style=&quot;line-height: 19px;&quot;&gt;&lt;span style=&quot;font-size: 14px; white-space: pre;&quot;&gt; has &quot;open finger holes&quot;&lt;/span&gt;&lt;/div&gt;" style="text;html=1;align=left;verticalAlign=middle;rounded=0;whiteSpace=wrap;fontFamily=Comic Sans MS;movable=0;resizable=0;rotatable=0;deletable=0;editable=0;locked=1;connectable=0;" vertex="1" parent="1">
          <mxGeometry x="200" y="337" width="260" height="60" as="geometry" />
        </mxCell>
        <mxCell id="Z5FC2RaIZn3amWJaB2KY-16" value="" style="endArrow=none;html=1;rounded=0;dashed=1;sketch=1;curveFitting=1;jiggle=2;strokeWidth=2;dashPattern=1 2;fillColor=#d5e8d4;strokeColor=#82b366;" edge="1" parent="1">
          <mxGeometry width="50" height="50" relative="1" as="geometry">
            <mxPoint x="195.95" y="206" as="sourcePoint" />
            <mxPoint x="308.46" y="206" as="targetPoint" />
          </mxGeometry>
        </mxCell>
        <mxCell id="Z5FC2RaIZn3amWJaB2KY-17" value="" style="endArrow=none;html=1;rounded=0;dashed=1;sketch=1;curveFitting=1;jiggle=2;strokeWidth=2;dashPattern=1 2;fillColor=#d5e8d4;strokeColor=#82b366;" edge="1" parent="1">
          <mxGeometry width="50" height="50" relative="1" as="geometry">
            <mxPoint x="200" y="280" as="sourcePoint" />
            <mxPoint x="312.51" y="280" as="targetPoint" />
          </mxGeometry>
        </mxCell>
        <mxCell id="Z5FC2RaIZn3amWJaB2KY-18" value="" style="endArrow=none;html=1;rounded=0;dashed=1;sketch=1;curveFitting=1;jiggle=2;strokeWidth=2;dashPattern=1 2;fillColor=#d5e8d4;strokeColor=#82b366;" edge="1" parent="1">
          <mxGeometry width="50" height="50" relative="1" as="geometry">
            <mxPoint x="230" y="320" as="sourcePoint" />
            <mxPoint x="367.46" y="320" as="targetPoint" />
          </mxGeometry>
        </mxCell>
        <mxCell id="Z5FC2RaIZn3amWJaB2KY-19" value="" style="endArrow=none;html=1;rounded=0;dashed=1;sketch=1;curveFitting=1;jiggle=2;strokeWidth=2;dashPattern=1 2;fillColor=#d5e8d4;strokeColor=#82b366;" edge="1" parent="1">
          <mxGeometry width="50" height="50" relative="1" as="geometry">
            <mxPoint x="230" y="358" as="sourcePoint" />
            <mxPoint x="369.46" y="358" as="targetPoint" />
          </mxGeometry>
        </mxCell>
        <mxCell id="Z5FC2RaIZn3amWJaB2KY-20" value="" style="endArrow=none;html=1;rounded=0;dashed=1;sketch=1;curveFitting=1;jiggle=2;strokeWidth=2;dashPattern=1 2;fillColor=#d5e8d4;strokeColor=#82b366;" edge="1" parent="1">
          <mxGeometry width="50" height="50" relative="1" as="geometry">
            <mxPoint x="235.95" y="400" as="sourcePoint" />
            <mxPoint x="348.46" y="400" as="targetPoint" />
          </mxGeometry>
        </mxCell>
        <mxCell id="Z5FC2RaIZn3amWJaB2KY-23" value="" style="endArrow=none;html=1;rounded=0;dashed=1;sketch=1;curveFitting=1;jiggle=2;strokeWidth=2;dashPattern=1 2;fillColor=#dae8fc;strokeColor=#6c8ebf;" edge="1" parent="1">
          <mxGeometry width="50" height="50" relative="1" as="geometry">
            <mxPoint x="251" y="377.40999999999997" as="sourcePoint" />
            <mxPoint x="418.46" y="377.40999999999997" as="targetPoint" />
          </mxGeometry>
        </mxCell>
        <mxCell id="Z5FC2RaIZn3amWJaB2KY-28" value="" style="endArrow=classic;html=1;rounded=0;exitX=0.009;exitY=0.348;exitDx=0;exitDy=0;exitPerimeter=0;entryX=0;entryY=0.25;entryDx=0;entryDy=0;edgeStyle=orthogonalEdgeStyle;curved=1;fillColor=#d5e8d4;strokeColor=#82b366;sketch=1;curveFitting=1;jiggle=2;strokeWidth=1.5;shadow=1;" edge="1" parent="1">
          <mxGeometry width="50" height="50" relative="1" as="geometry">
            <mxPoint x="196" y="203" as="sourcePoint" />
            <mxPoint x="200" y="273" as="targetPoint" />
            <Array as="points">
              <mxPoint x="180" y="203" />
              <mxPoint x="180" y="273" />
            </Array>
          </mxGeometry>
        </mxCell>
        <mxCell id="Z5FC2RaIZn3amWJaB2KY-31" value="" style="endArrow=classic;html=1;rounded=0;entryX=0.385;entryY=0.05;entryDx=0;entryDy=0;entryPerimeter=0;fillColor=#d5e8d4;strokeColor=#82b366;shadow=0;sketch=1;curveFitting=1;jiggle=2;strokeWidth=1.5;" edge="1" parent="1">
          <mxGeometry width="50" height="50" relative="1" as="geometry">
            <mxPoint x="306" y="320" as="sourcePoint" />
            <mxPoint x="306.0999999999999" y="340" as="targetPoint" />
          </mxGeometry>
        </mxCell>
        <mxCell id="Z5FC2RaIZn3amWJaB2KY-32" value="" style="endArrow=classic;html=1;rounded=0;edgeStyle=orthogonalEdgeStyle;curved=1;sketch=1;curveFitting=1;jiggle=2;fillColor=#dae8fc;strokeColor=#6c8ebf;strokeWidth=1.5;shadow=1;" edge="1" parent="1">
          <mxGeometry width="50" height="50" relative="1" as="geometry">
            <mxPoint x="425" y="220" as="sourcePoint" />
            <mxPoint x="425" y="370" as="targetPoint" />
            <Array as="points">
              <mxPoint x="455" y="220" />
              <mxPoint x="455" y="370" />
            </Array>
          </mxGeometry>
        </mxCell>
        <mxCell id="Z5FC2RaIZn3amWJaB2KY-33" value="" style="endArrow=none;html=1;rounded=0;dashed=1;sketch=1;curveFitting=1;jiggle=2;strokeWidth=2;dashPattern=1 2;fillColor=#dae8fc;strokeColor=#6c8ebf;" edge="1" parent="1">
          <mxGeometry width="50" height="50" relative="1" as="geometry">
            <mxPoint x="240" y="402.99999999999994" as="sourcePoint" />
            <mxPoint x="350" y="403" as="targetPoint" />
          </mxGeometry>
        </mxCell>
        <mxCell id="Z5FC2RaIZn3amWJaB2KY-40" value="" style="endArrow=classic;html=1;rounded=0;edgeStyle=orthogonalEdgeStyle;curved=1;fillColor=#d5e8d4;strokeColor=#82b366;sketch=1;curveFitting=1;jiggle=2;strokeWidth=1.5;shadow=1;" edge="1" parent="1">
          <mxGeometry width="50" height="50" relative="1" as="geometry">
            <mxPoint x="200" y="280" as="sourcePoint" />
            <mxPoint x="230" y="320" as="targetPoint" />
            <Array as="points">
              <mxPoint x="200" y="280" />
              <mxPoint x="180" y="280" />
              <mxPoint x="180" y="320" />
            </Array>
          </mxGeometry>
        </mxCell>
        <mxCell id="Z5FC2RaIZn3amWJaB2KY-41" value="" style="endArrow=classic;html=1;rounded=0;edgeStyle=orthogonalEdgeStyle;curved=1;fillColor=#d5e8d4;strokeColor=#82b366;sketch=1;curveFitting=1;jiggle=2;strokeWidth=1.5;shadow=1;" edge="1" parent="1">
          <mxGeometry width="50" height="50" relative="1" as="geometry">
            <mxPoint x="230" y="360" as="sourcePoint" />
            <mxPoint x="240" y="400" as="targetPoint" />
            <Array as="points">
              <mxPoint x="190" y="360" />
              <mxPoint x="190" y="400" />
            </Array>
          </mxGeometry>
        </mxCell>
        <mxCell id="Z5FC2RaIZn3amWJaB2KY-43" value="" style="endArrow=classic;html=1;rounded=0;fillColor=#dae8fc;strokeColor=#6c8ebf;strokeWidth=1.5;sketch=1;curveFitting=1;jiggle=2;shadow=1;" edge="1" parent="1">
          <mxGeometry width="50" height="50" relative="1" as="geometry">
            <mxPoint x="380" y="380" as="sourcePoint" />
            <mxPoint x="360" y="400" as="targetPoint" />
          </mxGeometry>
        </mxCell>
      </root>
    </mxGraphModel>
  </diagram>
</mxfile>
